<?xml version="1.0" encoding="utf-8"?>
<!-- Generator: Adobe Illustrator 19.0.0, SVG Export Plug-In . SVG Version: 6.00 Build 0)  -->
<svg version="1.1" id="Layer_1" xmlns="http://www.w3.org/2000/svg" xmlns:xlink="http://www.w3.org/1999/xlink" x="0px" y="0px"
	 viewBox="129 -171.3 500 500" style="enable-background:new 129 -171.3 500 500;" xml:space="preserve">
<style type="text/css">
	.st0{fill:#FFFFFF;}
	.st1{opacity:0.4;fill:#212121;enable-background:new    ;}
	.st2{fill:#212121;}
</style>
<g>
	<path class="st0" d="M175-691.2v0.2C175-691.1,175-691.1,175-691.2L175-691.2z M178.4-709.8L178.4-709.8c-0.1,0.3-0.2,0.5-0.2,0.7
		C178.3-709.3,178.4-709.6,178.4-709.8L178.4-709.8z"/>
</g>
<g>
	<path class="st0" d="M347.5-743c0.2-0.2,0.3-0.4,0.5-0.6c0,0,0-0.1,0.1-0.1C347.8-743.5,347.7-743.2,347.5-743z"/>
</g>
<g>
	<polyline class="st1" points="230,227.5 230,247.6 334.7,247.6 334.7,227.5 	"/>
	<path class="st1" d="M575.2,227.5c-5.3,7-11,13.8-17,20.2H413.6v-20.2H575.2z"/>
	<path class="st1" d="M481.6,165.6c-7.1,0-12.7-5.7-12.7-12.7s5.7-12.7,12.7-12.7"/>
	<path class="st2" d="M555.4-97.6c-47.1-47.2-109.8-73.2-176.4-73.2s-129.3,25.9-176.4,73.1c-47.1,47.1-73.1,109.8-73.1,176.4
		s25.9,129.3,73.1,176.4s109.8,73.1,176.4,73.1c35,0,68.9-7.1,100.6-21.1c30.7-13.5,57.9-32.8,81.1-57.3l5.4-5.7h-0.2
		c3.8-4.3,7.6-8.8,11-13.4l0,0l1-1.4c33.1-43.6,50.6-95.7,50.6-150.7C628.6,12.2,602.6-50.5,555.4-97.6z M621.8,78.8
		c0,35.9-7.7,70.4-22.3,102c-0.7-0.1-1.4-0.2-2-0.3c-0.1-0.5-0.3-0.8-0.7-1.2c-1.2-1.5-3.4-1.6-4.7-0.5c-0.2,0.1-0.3,0.3-0.6,0.5
		c-3.9-0.8-7.8-1.7-11.5-2.6c0-0.9-0.2-1.9-1-2.6c-1.4-1.4-3.5-1.2-4.7,0.1c-0.2,0.2-0.5,0.6-0.7,0.8c-3.4-0.9-6.5-1.9-9.6-2.9
		c0-0.8-0.3-1.6-0.9-2.1c-1.2-1.4-3.4-1.5-4.7-0.2c-0.1,0.1-0.2,0.2-0.3,0.3c-3.8-1.4-7.6-2.8-10.9-4.3c1.1-1.2,1.1-3,0.1-4.4
		c-1.2-1.5-3.3-1.7-4.7-0.5c-0.7,0.6-1.4,1.2-2.1,1.8c-19.8-9.4-29.3-18.2-29.4-18.3c-1-1-2.6-1.2-3.9-0.6c0,0-0.2,0.1-0.3,0.2v-15
		H536c1.2,0,2.4-0.7,2.9-1.7c0.2-0.3,4.5-8.2,4.5-18s-4.4-17.4-4.6-17.7c-0.6-1-1.7-1.7-2.9-1.7h-5.6v-201.3
		c7.2,5.7,14.1,12,20.7,18.5C596.6-47,621.8,14,621.8,78.8z M573.5,224.1H419.2c-0.6-5-1.2-16.2,1.8-28.5
		c10.1-1.5,19.4-7.8,24.5-16.7c6.7,2.4,16.1,4.5,30,4.5c22.4,0,30.4-5.7,34.8-8.8c2.4-1.7,5.6-1.8,8.3-0.3c2.1,1.2,4.6,2.6,7.6,3.9
		c-1,1.8-1.9,3.7-2.3,6c-0.3,1.8,0.9,3.6,2.8,3.8c0.2,0,0.3,0,0.6,0c1.6,0,3-1.1,3.4-2.8c0.2-1.5,0.9-2.9,1.8-4.3
		c4.1,1.7,8.6,3.4,13.6,5c-0.7,1.7-1.2,3.6-1,5.6c0.2,1.7,1.7,3,3.4,3c0.1,0,0.2,0,0.3,0c1.8-0.2,3.2-1.9,2.9-3.7
		c-0.1-0.9,0.3-1.9,0.9-2.9c3,0.8,6.3,1.6,9.7,2.3c-0.8,1.6-1.4,3.8-0.6,6.1c0.5,1.5,1.8,2.4,3.3,2.4c0.3,0,0.7,0,1-0.1
		c1.8-0.6,2.7-2.5,2.1-4.3c0-0.1-0.1-0.7,1-2.5c0-0.1,0.1-0.1,0.1-0.2c3.7,0.6,7.7,1.1,11.8,1.5c-0.5,0.9-0.8,1.8-1.1,2.7
		c-0.7,1.7,0.2,3.7,1.9,4.4c0.5,0.1,0.8,0.2,1.2,0.2c1.4,0,2.6-0.8,3.2-2.1c0.7-1.6,1.4-3.2,2.3-4.6c1.5,0.1,2.9,0.1,4.5,0.2
		C587.3,204.1,580.8,214.3,573.5,224.1z M429.1,90.1v-248.9c34,7.1,66.1,21.4,94.1,42.3V90.2L429.1,90.1L429.1,90.1z M533.5,96.9
		c1.1,2.4,2.8,7,2.8,12.6c0,5.5-1.8,10.5-2.8,13H419.2c-1.6-2.1-4.6-7-4.6-12.7s3-10.7,4.6-12.7h114.2L533.5,96.9
		C533.4,96.9,533.5,96.9,533.5,96.9z M552.8,175.5c-1.1,1.5-2.3,2.9-3.3,4.5c-4.6-1.4-8.9-2.9-12.6-4.4c1.5-1.6,2.9-3.2,4.5-4.7
		C545,172.4,548.7,174,552.8,175.5z M568.5,180.7c-0.8,1.1-1.7,2.1-2.4,3.3c-3.4-0.7-6.7-1.4-9.7-2.1c1-1.4,2-2.7,3.3-3.9
		C562.5,178.9,565.5,179.8,568.5,180.7z M586,185.1c-0.3,0.5-0.7,0.8-1,1.2c-3.9-0.3-7.7-0.7-11.4-1.2c0.7-0.9,1.4-1.7,2-2.5
		C579,183.6,582.4,184.3,586,185.1z M594.7,186.8c-0.5,0-0.8,0-1.2,0c0-0.1,0.1-0.1,0.1-0.1C593.9,186.7,594.2,186.8,594.7,186.8z
		 M530.3,172.7c-3.3-1.6-6.1-3-8.3-4.3c-4.4-2.5-9.8-2.5-14.2-0.1c-1.6-0.9-5.7-3.6-5.3-8.2c0.5-4.2,3.6-7.2,5.6-8.8
		c3.7,3,12.4,9.6,26.7,16.6C533.2,169.5,531.8,171,530.3,172.7z M499.6,129.2v20.9c-1.9,2.4-3.5,5.5-3.9,9.2
		c-0.7,6.2,2.7,10.4,5.7,12.9c-4.6,2.3-12.2,4.5-25.9,4.5c-11.3,0-19.3-1.5-25.4-3.3v-44.1L499.6,129.2
		C499.6,129.3,499.6,129.2,499.6,129.2z M423.2,188.2c0.8-2.3,1.7-4.4,2.8-6.7c2.5-5,4.3-7.7,5.4-8.1c0.8-0.3,2.9,0.8,5.3,1.8
		c0.7,0.3,1.5,0.7,2.4,1.1C435.5,182,429.6,186.4,423.2,188.2z M325.9,209.6L325.9,209.6c3.4,5.6,4.6,11.2,5.2,14.5h-97.4
		c0.6-3.6,1.9-9.7,5.6-15.8c8-12.9,22.3-19.3,42.5-19.3c25.5,0,37.8,10.1,43.7,20C325.8,209.3,325.9,209.5,325.9,209.6z
		 M233.3,230.9h98v13.4h-98C233.3,244.3,233.3,230.9,233.3,230.9z M305,185.5c-6.4-2-14.1-3.3-23.2-3.3c-8.7,0-16.1,1.1-22.2,3
		c0.2-1.1,0.5-2.5,0.7-3.9c9.5-1.6,25.7-2.6,38.9-1c2,0.2,3.7,0.6,5.2,0.9C304.6,182.8,304.9,184.2,305,185.5z M288.8,175.1
		c-6.7-0.2-18.6,0.1-27.7,1.6c0.3-2.3,0.7-4.7,1-7.2c9.6-1.5,24.7-2.3,37.1-0.7c1.2,0.1,2.4,0.3,3.4,0.6c0.3,2.5,0.7,4.8,1,7.2
		C299.6,175.8,294.7,175.3,288.8,175.1z M288.8,163.6c-6.3-0.2-17.1,0.1-26,1.2c0.7-5.6,1.2-11.2,1.2-15c0-2.4,7-5.7,18.4-5.9
		c11.4,0,18.4,3.4,18.4,5.9c0,3.8,0.5,9.2,1.2,14.9C298.3,164,293.9,163.7,288.8,163.6z M252.1,163.3c1.5-0.7,2.9-1.2,4.2-1.5
		c-0.1,1.5-0.3,2.9-0.6,4.4c-3.4,0.8-5.9,1.9-6.8,3.3c-0.7,1-0.5,2.5,0.6,3.2c1,0.7,2.4,0.5,3.2-0.6c0.3-0.3,1.1-0.7,2.4-1.1
		c-0.3,2.6-0.8,5-1.1,7.3c-2.5,0.8-4.2,1.7-5,2.8c-0.7,1-0.5,2.5,0.6,3.2c1,0.7,2.4,0.5,3.2-0.6c0.1-0.1,0.2-0.2,0.5-0.3
		c-0.3,2-0.7,3.7-0.9,4.8c-3.7,1.8-7,3.9-9.7,6.3c1.2-6,2.4-13.1,2.4-19.8C244.8,169.3,247.2,165.6,252.1,163.3z M312.5,188.4
		c-0.1-0.9-0.3-2.1-0.7-3.6c0.5,0.5,1,0.8,1.7,0.8c0.3,0,0.8-0.1,1.1-0.3c1.1-0.7,1.5-2,0.8-3c-0.8-1.4-2.4-2.6-4.6-3.6
		c-0.3-2.3-0.8-4.6-1.1-7.1c1.4,0.7,1.7,1.2,1.8,1.5c0.5,0.7,1.1,1.1,1.9,1.1c0.3,0,0.8-0.1,1.1-0.3c1.1-0.7,1.5-2,0.8-3
		c-1-1.8-3.2-3.2-6.4-4.3c-0.2-1.5-0.3-2.9-0.6-4.4c1.1,0.3,2.5,0.8,3.8,1.4c4.8,2.4,7.2,6.1,7.2,11.4c0,6.8,1,13.8,2.4,19.7
		C319.1,192.1,316.1,190.1,312.5,188.4z M307.2,147.5c-1.6-5.1-8.7-10.3-24.8-10.3c-15.8,0-22.9,5-24.7,9.9v-17.9h49.5V147.5
		L307.2,147.5z M223.3,122.4c-1.6-2.1-4.6-7-4.6-12.7s3-10.7,4.6-12.7h115c1.1,2.4,2.8,7.1,2.8,12.6s-1.8,10.5-2.9,13H223.3V122.4z
		 M234.1,90.1v-206.2c28.1-21,60.1-35.4,94.1-42.6V90.1H234.1L234.1,90.1z M476.9,301c-30.9,13.6-63.8,20.5-97.9,20.5
		c-133.8,0-242.7-108.9-242.7-242.7c0-64.8,25.3-125.8,71.1-171.7c6.4-6.4,13.1-12.4,20.1-17.9v201h-5.7c-0.9,0-1.8,0.5-2.5,1.1
		c-0.3,0.3-7.3,8-7.3,18.5s7,18.2,7.3,18.5c0.7,0.7,1.6,1.1,2.5,1.1H251v27.2c-6.4,2.6-12.7,8.1-12.7,18.3c0,15.2-6,32.5-6.1,32.7
		l0.2,0.1c-5.4,10.3-5.6,19.8-5.6,20.1v3.4v20.2h111.5v-20.2v-3.4c0-0.2-0.1-10.1-6-20.6c-0.9-2.7-6-18.3-6-32.2
		c0-9.9-6-15.3-12.3-18v-27.3h26.4c1.2,0,2.4-0.7,2.9-1.7c0.2-0.3,4.6-8.2,4.6-18s-4.4-17.4-4.6-17.7c-0.6-1-1.7-1.7-2.9-1.7h-5.3
		V-160c14.3-2.6,29.1-3.9,44-3.9c14.7,0,29.1,1.4,43.3,3.8V90.2h-4.7c-0.9,0-1.8,0.5-2.5,1.1c-0.3,0.3-7.2,8-7.2,18.5
		s7,18.2,7.2,18.5c0.7,0.7,1.6,1.1,2.5,1.1h25.8V171c-1.5-0.6-2.7-1.2-3.8-1.7c-9.6-4.5-13.1-3.8-19.6,9.4
		c-9,18.2-8.5,37.4-7.6,45.5h-2.1v3.4v20.2v3.4h3.4h136.3C528.9,272.2,504.3,289,476.9,301z M556.7,244.2H417v-13.4h151.3
		C564.6,235.4,560.7,239.9,556.7,244.2z"/>
	<path class="st2" d="M296.7-128.1c-8.6-2.9-18.5-2.1-26.5,2.3s-14,12.3-16.1,21.2c-0.5,1.8,0.7,3.6,2.5,4.1
		c0.2,0.1,0.6,0.1,0.8,0.1c1.6,0,2.9-1,3.3-2.6c1.7-7,6.4-13.3,12.9-16.8c6.4-3.5,14.2-4.2,21.1-1.8c1.8,0.6,3.7-0.3,4.3-2.1
		C299.4-125.5,298.4-127.4,296.7-128.1z"/>
</g>
</svg>
