<?xml version="1.0" encoding="utf-8"?>
<!-- Generator: Adobe Illustrator 19.0.0, SVG Export Plug-In . SVG Version: 6.00 Build 0)  -->
<svg version="1.1" id="Layer_1" xmlns="http://www.w3.org/2000/svg" xmlns:xlink="http://www.w3.org/1999/xlink" x="0px" y="0px"
	 viewBox="-1749 751 500 500" style="enable-background:new -1749 751 500 500;" xml:space="preserve">
<style type="text/css">
	.st0{fill:#212121;}
	.st1{opacity:0.4;fill:#212121;enable-background:new    ;}
	.st2{opacity:0.4;fill:#212121;}
	.st3{opacity:0.6;fill:#212121;}
</style>
<g>
	<path class="st0" d="M-1555.7,1079.1"/>
	<g>
		<path class="st0" d="M-1603.5,940.4v0.2C-1603.5,940.5-1603.5,940.5-1603.5,940.4L-1603.5,940.4z M-1599.6,919.1L-1599.6,919.1
			c-0.1,0.3-0.2,0.6-0.2,0.8C-1599.7,919.7-1599.6,919.4-1599.6,919.1L-1599.6,919.1z"/>
	</g>
	<g>
		<path class="st0" d="M-1406.3,881.2c0.2-0.2,0.3-0.5,0.6-0.7c0,0,0-0.1,0.1-0.1C-1405.8,880.6-1406,880.8-1406.3,881.2z"/>
	</g>
	<path class="st0" d="M-1524.8,861.6c-0.2,0-0.3,0.1-0.6,0.1c-0.1,0-0.1,0-0.2,0c-0.2,0-0.5,0.1-0.7,0.1c0.8-0.1,1.5-0.3,2.3-0.5
		C-1524.3,861.4-1524.6,861.4-1524.8,861.6z M-1521.8,861c-0.3,0.1-0.8,0.1-1.1,0.2C-1522.6,861.1-1522.1,861.1-1521.8,861
		c0.7-0.1,1.5-0.2,2.2-0.3C-1520.4,860.8-1521.1,860.9-1521.8,861z M-1519.6,860.8c-0.8,0.1-1.5,0.1-2.2,0.3
		c-0.3,0.1-0.8,0.1-1.1,0.2c0.3-0.1,0.8-0.1,1.1-0.1c0.8-0.1,1.6-0.2,2.4-0.3L-1519.6,860.8z M-1524.8,861.6c-0.2,0-0.3,0.1-0.6,0.1
		c-0.1,0-0.1,0-0.2,0c-0.2,0-0.5,0.1-0.7,0.1c0.8-0.1,1.5-0.3,2.3-0.5C-1524.3,861.4-1524.6,861.4-1524.8,861.6z M-1519.6,860.8
		c-0.8,0.1-1.5,0.1-2.2,0.3c-0.3,0.1-0.8,0.1-1.1,0.2c-0.3,0.1-0.8,0.1-1.1,0.2c-0.2,0-0.6,0.1-0.8,0.1s-0.3,0.1-0.6,0.1
		c-0.1,0-0.1,0-0.2,0c-0.2,0-0.5,0.1-0.7,0.1c1.5-0.3,2.9-0.6,4.4-0.8c0.8-0.1,1.6-0.2,2.4-0.3L-1519.6,860.8z M-1519.6,860.8
		c-0.8,0.1-1.5,0.1-2.2,0.3c-0.3,0.1-0.8,0.1-1.1,0.2c-0.3,0.1-0.8,0.1-1.1,0.2c-0.2,0-0.6,0.1-0.8,0.1s-0.3,0.1-0.6,0.1
		c-0.1,0-0.1,0-0.2,0c-0.2,0-0.5,0.1-0.7,0.1c1.5-0.3,2.9-0.6,4.4-0.8c0.8-0.1,1.6-0.2,2.4-0.3L-1519.6,860.8z M-1519.6,860.8
		c-0.8,0.1-1.5,0.1-2.2,0.3c-0.3,0.1-0.8,0.1-1.1,0.2c-0.3,0.1-0.8,0.1-1.1,0.2c-0.2,0-0.6,0.1-0.8,0.1s-0.3,0.1-0.6,0.1
		c-0.1,0-0.1,0-0.2,0c-0.2,0-0.5,0.1-0.7,0.1c1.5-0.3,2.9-0.6,4.4-0.8c0.8-0.1,1.6-0.2,2.4-0.3L-1519.6,860.8z M-1519.6,860.8
		c-0.8,0.1-1.5,0.1-2.2,0.3c-0.3,0.1-0.8,0.1-1.1,0.2c-0.3,0.1-0.8,0.1-1.1,0.2c-0.2,0-0.6,0.1-0.8,0.1s-0.3,0.1-0.6,0.1
		c-0.1,0-0.1,0-0.2,0c-0.2,0-0.5,0.1-0.7,0.1c1.5-0.3,2.9-0.6,4.4-0.8c0.8-0.1,1.6-0.2,2.4-0.3L-1519.6,860.8z M-1597.8,928.7
		c-0.1,0.2-0.2,0.5-0.2,0.8C-1597.9,929.2-1597.8,929-1597.8,928.7L-1597.8,928.7L-1597.8,928.7z M-1519.6,860.8
		c-0.8,0.1-1.5,0.1-2.2,0.3c-0.3,0.1-0.8,0.1-1.1,0.2c-0.3,0.1-0.8,0.1-1.1,0.2c-0.2,0-0.6,0.1-0.8,0.1s-0.3,0.1-0.6,0.1
		c-0.1,0-0.1,0-0.2,0c-0.2,0-0.5,0.1-0.7,0.1c1.5-0.3,2.9-0.6,4.4-0.8c0.8-0.1,1.6-0.2,2.4-0.3L-1519.6,860.8z M-1519.6,860.8
		c-0.8,0.1-1.5,0.1-2.2,0.3c-0.3,0.1-0.8,0.1-1.1,0.2c-0.3,0.1-0.8,0.1-1.1,0.2c-0.2,0-0.6,0.1-0.8,0.1s-0.3,0.1-0.6,0.1
		c-0.1,0-0.1,0-0.2,0c-0.2,0-0.5,0.1-0.7,0.1c1.5-0.3,2.9-0.6,4.4-0.8c0.8-0.1,1.6-0.2,2.4-0.3L-1519.6,860.8z M-1519.6,860.8
		c-0.8,0.1-1.5,0.1-2.2,0.3c-0.3,0.1-0.8,0.1-1.1,0.2c-0.3,0.1-0.8,0.1-1.1,0.2c-0.2,0-0.6,0.1-0.8,0.1s-0.3,0.1-0.6,0.1
		c-0.1,0-0.1,0-0.2,0c-0.2,0-0.5,0.1-0.7,0.1c1.5-0.3,2.9-0.6,4.4-0.8c0.8-0.1,1.6-0.2,2.4-0.3L-1519.6,860.8z M-1519.6,860.8
		c-0.8,0.1-1.5,0.1-2.2,0.3c-0.3,0.1-0.8,0.1-1.1,0.2c-0.3,0.1-0.8,0.1-1.1,0.2c-0.2,0-0.6,0.1-0.8,0.1s-0.3,0.1-0.6,0.1
		c-0.1,0-0.1,0-0.2,0c-0.2,0-0.5,0.1-0.7,0.1c1.5-0.3,2.9-0.6,4.4-0.8c0.8-0.1,1.6-0.2,2.4-0.3L-1519.6,860.8z M-1519.6,860.8
		c-0.8,0.1-1.5,0.1-2.2,0.3c-0.3,0.1-0.8,0.1-1.1,0.2c-0.3,0.1-0.8,0.1-1.1,0.2c-0.2,0-0.6,0.1-0.8,0.1s-0.3,0.1-0.6,0.1
		c-0.1,0-0.1,0-0.2,0c-0.2,0-0.5,0.1-0.7,0.1c1.5-0.3,2.9-0.6,4.4-0.8c0.8-0.1,1.6-0.2,2.4-0.3L-1519.6,860.8z M-1524.8,861.6
		c-0.2,0-0.3,0.1-0.6,0.1c-0.1,0-0.1,0-0.2,0c-0.2,0-0.5,0.1-0.7,0.1c0.8-0.1,1.5-0.3,2.3-0.5
		C-1524.3,861.4-1524.6,861.4-1524.8,861.6z M-1521.8,861c-0.3,0.1-0.8,0.1-1.1,0.2C-1522.6,861.1-1522.1,861.1-1521.8,861
		c0.7-0.1,1.5-0.2,2.2-0.3C-1520.4,860.8-1521.1,860.9-1521.8,861z"/>
	<path class="st0" d="M-1521.5,985.6h-6.5c0-0.5,0-0.8-0.1-1.2c-0.1-3.3-0.7-6.2-1.8-8.8c-0.8-2-1.9-3.7-3.3-5.3
		c-0.1-0.1-0.3-0.3-0.5-0.5c-1-1-2-1.8-3.2-2.5c-0.5-0.2-0.9-0.5-1.4-0.7c-0.5-0.2-0.8-0.3-1.2-0.5c-1.5-0.6-3.1-0.8-4.8-0.8
		c-1,0-2,0.1-2.9,0.2c-0.5,0.1-1,0.2-1.5,0.3c-0.6,0.1-1,0.3-1.6,0.6c-0.5,0.2-0.8,0.3-1.2,0.6c-0.5,0.2-0.8,0.5-1.2,0.8
		c-0.1,0.1-0.2,0.1-0.3,0.2c-0.3,0.2-0.7,0.6-1,0.8c-0.2,0.2-0.6,0.5-0.8,0.8c-1.6,1.5-2.8,3.4-3.9,5.7c-1.1,2.7-1.9,6-1.9,10h-6.5
		c0.1-17.6,11.6-26.6,22.9-26.6C-1533,958.9-1521.5,968.1-1521.5,985.6z"/>
	<path class="st0" d="M-1433.8,986h-6.5c0-3.7-0.6-7.1-1.8-10c-0.8-2-1.9-3.9-3.4-5.3c-0.1-0.1-0.2-0.2-0.3-0.3
		c0-0.1-0.1-0.1-0.1-0.1c-0.3-0.3-0.6-0.6-0.9-0.8c-0.7-0.6-1.5-1.1-2.3-1.6c-0.5-0.2-0.9-0.5-1.4-0.7c-0.5-0.2-0.9-0.3-1.5-0.6
		c-0.5-0.1-1-0.3-1.5-0.5c-1-0.2-2-0.3-3.1-0.3c-1.6,0-3.2,0.2-4.8,0.8c-0.3,0.1-0.7,0.2-1,0.3c-0.8,0.3-1.6,0.8-2.4,1.2
		c-0.3,0.2-0.6,0.3-0.9,0.7c-0.6,0.3-1,0.8-1.5,1.2c-1.6,1.5-2.9,3.4-3.9,5.8c-1,2.5-1.7,5.4-1.8,8.8c-0.1,0.3-0.1,0.8-0.1,1.2h-6.5
		c0.1-17.6,11.6-26.6,22.9-26.6C-1445.1,959.3-1433.6,968.5-1433.8,986z"/>
	<path class="st0" d="M-1554.7,1085.6"/>
	<g>
		<path class="st0" d="M-1601.6,949.6v0.2C-1601.6,949.7-1601.6,949.6-1601.6,949.6L-1601.6,949.6z M-1597.8,928.6L-1597.8,928.6
			c-0.1,0.3-0.2,0.6-0.2,0.8C-1597.9,929.2-1597.8,929-1597.8,928.6L-1597.8,928.6z"/>
	</g>
	<g>
		<path class="st0" d="M-1408.2,891.3c0.2-0.2,0.3-0.5,0.6-0.7c0,0,0-0.1,0.1-0.1C-1407.7,890.9-1407.9,891.1-1408.2,891.3z"/>
	</g>
	<g>
		<path class="st0" d="M-1573.4,954.8c1.8-2,11.1-7.2,16.5-7.2h37l-2.2-8.7h-34.8c-10.6,0-22.8,9.9-23.1,10.2L-1573.4,954.8z"/>
	</g>
	<path class="st0" d="M-1398.4,860.5v-3.4c0,0-5.8,2.8-12.8,2.8c-22.3-25.7-54.5-40.7-88.7-40.8c-65-0.3-118,52.3-118.4,117.2
		l-0.1,21.3c0,2.6,0.1,5.1,0.3,7.7v0.1c-0.2,1.1-0.3,2.3-0.3,3.6l-0.1,29.3c0,8.3,6.6,15,15,15.1c0.7,0,1.2-0.1,1.9-0.2
		c2.3,24.8,13.3,46.9,29.8,63.1c3.2,3.2,6.6,6.1,10.2,8.8l-0.1,31.4c0,0.6,0,1.1,0,1.7l-71.7-0.3c-2.8,0-5.7,0.1-8.3,0.2
		c-0.7,0-1.4,0.1-1.9,0.1c-2,0.1-4,0.3-5.9,0.6c-1.4,0.1-2.7,0.3-4.1,0.6c-0.3,0.1-0.8,0.1-1.1,0.2c-1.1,0.1-2.2,0.5-3.3,0.7
		c-0.6,0.1-1.1,0.2-1.6,0.3c-1.2,0.2-2.5,0.6-3.6,0.9c-0.1,0-0.2,0.1-0.5,0.1c-1.2,0.3-2.5,0.7-3.6,1.1c-0.3,0.1-0.7,0.1-1,0.3
		c-1.1,0.3-2.2,0.8-3.2,1.1c-1.4,0.5-2.6,1-3.9,1.6c-2.5,1-4.9,2.3-7.1,3.6c-1.1,0.7-2.3,1.2-3.3,2c-1,0.7-2,1.4-3.1,2
		c-1,0.7-1.9,1.5-2.9,2.2c-0.2,0.1-0.3,0.2-0.6,0.5c-0.8,0.7-1.6,1.2-2.3,1.9c-0.9,0.7-1.7,1.5-2.5,2.3c0,0-0.1,0-0.1,0.1
		c-1.5,1.4-2.8,2.8-4.2,4.3c1.2,1.9,2.5,3.7,3.7,5.6c0.7-0.8,1.2-1.5,2-2.2c0.3-0.3,0.6-0.7,0.9-1c0.5-0.5,0.8-0.8,1.2-1.1
		c0.8-0.8,1.6-1.5,2.4-2.3c0.7-0.6,1.4-1.1,2-1.8c0.5-0.3,0.8-0.7,1.2-0.9c0.7-0.6,1.4-1,2-1.5c0.5-0.3,0.9-0.7,1.4-1
		s0.8-0.6,1.2-0.8c0.1-0.1,0.1-0.1,0.2-0.1c1-0.7,2-1.2,3.1-1.8c0.9-0.6,1.8-1,2.8-1.6c1.2-0.7,2.6-1.2,4-1.9c1.2-0.6,2.4-1,3.6-1.5
		c1.2-0.5,2.5-0.9,3.9-1.4c1.2-0.5,2.6-0.8,4-1.1c1.4-0.3,2.7-0.7,4.1-1h0.1c0.7-0.1,1.4-0.3,2.2-0.5c0.6-0.1,1.1-0.2,1.7-0.3
		c0.1-0.1,0.3-0.1,0.5-0.1c1.2-0.2,2.4-0.3,3.6-0.6c0.7-0.1,1.5-0.2,2.3-0.2c1-0.1,2.2-0.2,3.2-0.3c0.7-0.1,1.4-0.1,2-0.1
		c1.5-0.1,2.9-0.1,4.4-0.2c0.7,0,1.5-0.1,2.2-0.1c0.8,0,1.5,0,2.3,0l72.3,0.3c4,29.4,29.2,52.2,59.8,52.4c0.9,0,1.9,0,2.8,0
		c0.9,0,1.7-0.1,2.5-0.1c0.2,0,0.3,0,0.5-0.1c0.8,0,1.5-0.1,2.2-0.2c0.2,0,0.5,0,0.8-0.1l0.7-0.1c0.8-0.1,1.6-0.2,2.3-0.5
		c0.8-0.1,1.6-0.3,2.3-0.5c0.8-0.1,1.5-0.3,2.3-0.6c0.5-0.1,0.9-0.2,1.2-0.3c0.6-0.1,1-0.3,1.5-0.5c0.9-0.2,1.7-0.6,2.6-0.9
		c0.7-0.2,1.4-0.6,2-0.8c0.2-0.1,0.5-0.1,0.7-0.2c0.7-0.2,1.2-0.6,1.9-0.8c0.2-0.1,0.3-0.1,0.6-0.2c0.8-0.3,1.5-0.8,2.3-1.1
		c0.7-0.3,1.2-0.8,1.9-1.1c0.7-0.3,1.2-0.8,1.9-1.1c0.7-0.5,1.2-0.8,1.9-1.2c0.8-0.5,1.5-1,2.3-1.6c0.6-0.5,1-0.8,1.6-1.2
		c0.6-0.5,1-0.8,1.5-1.2c0.7-0.6,1.2-1.1,1.9-1.7c0.7-0.7,1.4-1.2,1.9-1.9c0.7-0.7,1.2-1.4,1.8-2c0.6-0.6,1-1.2,1.6-1.8
		c0.2-0.2,0.3-0.5,0.6-0.7c0.3-0.2,0.3-0.5,0.6-0.8c0.1-0.1,0.2-0.3,0.3-0.5c0.1-0.1,0.1-0.1,0.2-0.2c0.6-0.7,1-1.4,1.5-2
		c0.2-0.3,0.5-0.7,0.7-1c0.5-0.6,0.8-1.1,1.1-1.8c0.6-0.8,1-1.7,1.5-2.5c0.1-0.1,0.1-0.2,0.2-0.5v-0.1c0.5-0.8,0.8-1.6,1.2-2.4
		c0.3-0.6,0.6-1.1,0.8-1.8c0.3-0.7,0.6-1.5,0.9-2.2c0.2-0.6,0.5-1.1,0.7-1.8c0.2-0.7,0.5-1.4,0.7-2c0.3-0.9,0.6-1.8,0.8-2.7
		c0-0.1,0.1-0.2,0.1-0.3c0.2-1,0.5-1.9,0.7-2.9c0.2-1,0.5-2.2,0.6-3.2l70.8,0.3c0.2,0,21.4,0.2,42.4,10.4c1.1,0.6,2.4,1.1,3.5,1.8
		c1.1,0.6,2.2,1.1,3.2,1.8c0.2,0.1,0.3,0.2,0.6,0.3c1,0.6,1.9,1.1,2.8,1.8c0,0,0.1,0,0.1,0.1c0.8,0.6,1.7,1.1,2.5,1.7
		c0.5,0.3,0.8,0.6,1.2,0.9c0.6,0.5,1,0.8,1.6,1.2c1,0.8,2,1.7,3.1,2.6c0.6,0.6,1.2,1.1,1.8,1.7s1.1,1,1.7,1.6l0,0
		c0.7,0.7,1.2,1.4,1.9,2c1.4-1.8,2.7-3.7,4-5.6c-1.1-1.2-2.4-2.5-3.6-3.6c-6.8-6.6-14.3-11.2-21.3-14.6
		c-22.3-10.9-44.4-11.1-45.3-11.1l-70.2-0.3c0-0.6,0-1.1,0-1.7l0.1-31.4c3.6-2.6,7-5.6,10.2-8.7c16.8-16.1,28-38.1,30.5-62.9
		c0.6,0.2,1.2,0.2,1.9,0.2c8.3,0,15.1-6.6,15.1-14.8l0.1-29.3c0-1.2-0.1-2.6-0.3-3.7v-0.1c0.2-2.5,0.3-5,0.3-7.5l0.1-21.3
		c0.1-22.1-5.9-43.5-17.3-62.1c1-3.7,1.6-7.6,1.6-11.6L-1398.4,860.5 M-1389.7,999.5c0,4.5-3.7,8.2-8.3,8.2c-0.6,0-0.9-0.2-1.1-0.7
		c-0.1-0.2-0.2-0.5-0.2-0.7l0.2-48.6c4.4,1.2,7.9,4.8,9.1,9.2l0,0c0.3,1,0.5,2.2,0.5,3.3L-1389.7,999.5z M-1389.5,955.3
		c-2.6-2.4-5.9-4-9.5-4.6v-0.3v-0.2c-1.9-25.8-19.8-37.6-35.4-43c9.1-1.7,17.3-6.1,23.9-12.9c3.1-3.2,5.7-6.8,7.6-10.8
		c9.1,16.5,13.8,35,13.7,54L-1389.5,955.3z M-1405.7,867.3c0,0.2,0,0.6-0.1,0.8c0,0.1,0,0.3,0,0.5c0,0.1,0,0.3-0.1,0.5
		c-0.2,1.1-0.3,2.2-0.7,3.3c-0.2,0.8-0.5,1.6-0.7,2.4c-0.8,2.7-2,5.4-3.5,7.9c-0.3,0.6-0.8,1.2-1.1,1.8c-0.6,0.8-1.1,1.6-1.8,2.5
		c-0.1,0.1-0.2,0.2-0.2,0.3c-0.7,0.8-1.4,1.6-2,2.4c-0.3,0.5-0.8,0.8-1.1,1.1c-0.1,0.1-0.1,0.1-0.2,0.2c-0.9,0.9-1.9,1.7-2.9,2.5
		s-2,1.5-3.1,2.2l0,0c-2.2,1.4-4.4,2.4-6.8,3.3c-0.6,0.2-1.1,0.5-1.8,0.6c-1.2,0.3-2.4,0.7-3.6,0.9c-2.5,0.5-5,0.7-7.6,0.7
		l-16.2-0.1l-45.1-0.2l-36.8-0.2c0,0-0.1,0-0.2,0l0,0l0,0c-0.6,0-14.5,0.8-28.9,7.5c-3.4,1.6-6.6,3.3-9.4,5.2c-0.7,0.5-1.4,1-2,1.5
		c-0.8,0.6-1.6,1.1-2.3,1.8c-0.5,0.3-0.8,0.7-1.1,1c-0.7,0.6-1.2,1.1-1.9,1.7c13-29.1,40.8-50.1,72.6-52.4l0,0l0,0
		c2.2-0.1,4.3-0.2,6.5-0.2c0,0,90.2,0.5,94.4,0.5c4.2,0,8-1.2,8-1.2L-1405.7,867.3z M-1602.2,1005.3c0,0.2-0.1,0.5-0.2,0.7
		c-0.2,0.3-0.7,0.7-1.1,0.7c-4.5,0-8.2-3.7-8.2-8.2l0.1-29.3c0-1.1,0.1-2.3,0.5-3.3l0,0c1.1-4.4,4.6-7.9,9.2-9.2L-1602.2,1005.3z
		 M-1611.6,954.3l0.1-17.9c0.3-61.3,50.3-110.8,111.6-110.4c6,0,11.8,0.6,17.6,1.5h0.1c4.4,0.7,8.8,1.7,13.1,3.1
		c1.5,0.5,2.8,0.9,4.2,1.4c16.9,5.7,32.3,15.4,44.9,28.7l-88.2-0.5c-1.6,0-3.1,0-4.6,0.1c-1,0-2,0.1-3.1,0.2c-0.5,0-0.9,0-1.4,0.1
		c-0.1,0-0.1,0-0.2,0c-0.6,0.1-1.1,0.1-1.7,0.2l0,0c-0.1,0-0.1,0-0.2,0s-0.2,0-0.2,0h-0.2c-0.2,0-0.3,0.1-0.6,0.1
		c-0.6,0.1-1.1,0.1-1.6,0.2c-0.1,0-0.3,0.1-0.5,0.1c-1,0.1-1.9,0.3-2.9,0.6c-0.3,0.1-0.7,0.1-1,0.2c-0.2,0-0.6,0.1-0.8,0.1
		c-0.1,0-0.2,0-0.2,0c-1.1,0.2-2.3,0.5-3.3,0.8c-1.5,0.3-2.8,0.8-4.2,1.2c-0.1,0-0.2,0.1-0.3,0.1c-1,0.3-1.9,0.7-2.9,1
		c-0.2,0.1-0.5,0.1-0.6,0.2c-0.5,0.1-0.8,0.3-1.2,0.5l0,0c-0.7,0.2-1.2,0.5-1.9,0.8c-0.2,0.1-0.6,0.2-0.9,0.3
		c-0.3,0.1-0.6,0.2-0.9,0.3c-0.6,0.2-1.1,0.5-1.7,0.8c-0.1,0-0.2,0.1-0.2,0.1c-0.1,0-0.2,0.1-0.3,0.1c-0.8,0.3-1.6,0.7-2.3,1.1l0,0
		c0,0,0,0-0.1,0c0,0-0.1,0-0.1,0.1c-1,0.5-2,1-3.1,1.6s-2.3,1.2-3.3,1.9c0,0,0,0-0.1,0l-0.1,0.1c-0.1,0.1-0.2,0.1-0.2,0.1
		c-0.2,0.1-0.5,0.2-0.7,0.5c-0.9,0.6-1.9,1.2-2.8,1.8c-0.1,0.1-0.2,0.2-0.5,0.2c-0.9,0.7-1.8,1.2-2.6,1.9c-0.2,0.1-0.3,0.2-0.6,0.5
		c-0.5,0.3-0.9,0.7-1.5,1c-0.7,0.6-1.4,1.1-2,1.7c-0.5,0.5-1,0.8-1.5,1.2c-0.1,0.1-0.2,0.2-0.3,0.3c-0.2,0.2-0.6,0.5-0.8,0.7
		l-0.1,0.1c-0.7,0.5-1.2,1.1-1.9,1.7c-0.7,0.6-1.4,1.2-1.9,1.8l-0.3,0.3c-0.7,0.7-1.4,1.4-1.9,2c-0.2,0.1-0.3,0.3-0.6,0.6
		c-0.6,0.5-1,1-1.5,1.6c-0.7,0.7-1.2,1.4-1.9,2.2c-0.2,0.3-0.6,0.7-0.8,1c-0.6,0.8-1.2,1.5-1.8,2.3c-0.1,0.1-0.2,0.2-0.2,0.3
		c-0.1,0.1-0.1,0.1-0.2,0.2c-0.2,0.2-0.5,0.6-0.7,0.9c-0.5,0.6-0.8,1.1-1.2,1.7c-0.1,0.1-0.2,0.2-0.2,0.5c0,0-0.1,0-0.1,0.1
		c-0.5,0.7-0.9,1.2-1.2,1.9c-0.3,0.5-0.7,1-1,1.6c-0.2,0.2-0.5,0.6-0.6,0.9c-0.3,0.5-0.6,1-0.9,1.5c-0.2,0.3-0.5,0.8-0.7,1.1
		c-0.1,0.1-0.2,0.3-0.3,0.5c-0.1,0.1-0.1,0.2-0.2,0.3l0,0l0,0c-0.1,0.1-0.1,0.1-0.2,0.2l0,0c-0.2,0.3-0.3,0.7-0.6,1
		c-0.1,0.2-0.2,0.5-0.3,0.7c0,0.1-0.1,0.1-0.1,0.2c-0.1,0.1-0.2,0.3-0.2,0.5c0,0.1-0.1,0.2-0.1,0.3c-0.1,0.2-0.2,0.5-0.3,0.7
		s-0.2,0.5-0.3,0.7c-0.2,0.5-0.6,1-0.8,1.6c-0.1,0.2-0.2,0.6-0.3,0.8c-0.1,0.2-0.2,0.5-0.3,0.7c-0.2,0.5-0.3,0.8-0.6,1.1
		c0,0.1-0.1,0.2-0.2,0.3c0,0.1-0.1,0.1-0.1,0.2c-0.1,0.2-0.2,0.5-0.2,0.6c-0.1,0.2-0.2,0.5-0.3,0.8c-0.1,0.2-0.2,0.5-0.2,0.7
		c-0.1,0.2-0.2,0.5-0.2,0.7c-0.2,0.5-0.3,0.8-0.6,1.2c0,0.1,0,0.1-0.1,0.2c-0.2,0.5-0.3,0.9-0.6,1.4c0,0.1,0,0.1-0.1,0.1
		c0,0.1,0,0.1-0.1,0.2v0.1l0,0l0,0c0,0.1-0.1,0.2-0.1,0.3c-0.1,0.1-0.1,0.2-0.2,0.3c0,0.1-0.1,0.1-0.1,0.2c0,0.1-0.1,0.2-0.1,0.3
		s0,0.1-0.1,0.2v0.1c-0.1,0.3-0.2,0.8-0.3,1.1c-0.1,0.1-0.1,0.3-0.2,0.5l0,0c0,0,0,0,0,0.1c0,0,0,0,0,0.1c0,0.1,0,0.1,0,0.1v0.1
		c0,0.1-0.1,0.1-0.1,0.2c0,0.1-0.1,0.2-0.1,0.3s-0.1,0.1-0.1,0.2v0.1c0,0.1,0,0.1-0.1,0.2v0.1v0.1c0,0,0,0,0,0.1l0,0v0.1
		c-0.1,0.2-0.1,0.5-0.2,0.8c0,0,0,0,0,0.1c-0.1,0.6-0.3,1.1-0.5,1.7c0,0.1-0.1,0.1-0.1,0.2c0,0.1,0,0.1,0,0.1v0.1
		c-0.1,0.5-0.2,0.8-0.3,1.1c-0.1,0.2-0.1,0.5-0.2,0.7c0,0,0,0,0,0.1s-0.1,0.1-0.1,0.2c0,0,0,0,0,0.1c-0.1,0.5-0.2,1-0.3,1.5
		c-0.1,0.3-0.2,0.8-0.2,1.1c0,0.1,0,0.2-0.1,0.3c0,0.1-0.1,0.3-0.1,0.5c-0.2,0.9-0.3,1.7-0.5,2.6l0,0v0.1c0,0.1,0,0.2-0.1,0.3
		l-0.1,0.7c-0.1,0.6-0.2,1.1-0.2,1.7c0,0.1,0,0.2-0.1,0.5c0,0.5-0.1,0.8-0.1,1.2c0,0.2,0,0.3-0.1,0.5c0,0.2-0.1,0.6-0.1,0.8
		c-0.1,1.1-0.2,2.4-0.3,3.6l0,0c0,0.1,0,0.1,0,0.2C-1605.5,950.4-1608.9,951.9-1611.6,954.3z M-1447.6,1117c0,0.6,0,1.1,0,1.7
		c-0.1,2.3-0.3,4.5-0.7,6.8c-0.7,4.1-1.8,7.9-3.3,11.7c-0.6,1.4-1.2,2.8-1.9,4.2c-1.1,2.2-2.4,4.3-3.9,6.2c-0.5,0.7-0.9,1.2-1.4,1.9
		c-2.4,3.2-5.2,6-8.2,8.5c-0.6,0.5-1.2,1-1.8,1.5c-1.7,1.4-3.5,2.5-5.4,3.6c-0.7,0.5-1.4,0.8-2,1.1c-1.6,0.8-3.2,1.6-4.9,2.3
		l-1.8,0.7c-0.8,0.3-1.6,0.6-2.5,0.8c-0.7,0.2-1.4,0.5-2,0.6c-0.9,0.2-1.7,0.5-2.6,0.7c-1.5,0.3-2.8,0.6-4.3,0.8
		c-0.2,0-0.6,0.1-0.8,0.1c-1.4,0.1-2.7,0.3-4.1,0.3c-0.8,0-1.7,0.1-2.5,0c-26.8-0.1-48.9-19.9-52.9-45.5c-0.3-2.3-0.6-4.5-0.6-6.8
		c0-0.6,0-1.1,0-1.7l0.1-26.7c3.3,2,6.7,4,10.2,5.6c13.1,6.3,28,9.9,43.6,10c1.5,0,2.8,0,4.2-0.1c3.2-0.1,6.2-0.3,9.3-0.8
		c1.2-0.1,2.5-0.3,3.7-0.6c0,0,0,0,0.1,0c0.8-0.1,1.5-0.2,2.3-0.5c0.3-0.1,0.7-0.1,1-0.2c0.8-0.1,1.5-0.3,2.3-0.5h0.1
		c1.2-0.2,2.4-0.6,3.5-0.8c2.8-0.7,5.7-1.6,8.4-2.6c0.1,0,0.2-0.1,0.2-0.1c1.2-0.5,2.4-0.9,3.6-1.4c0.2-0.1,0.5-0.1,0.7-0.2
		c1.5-0.6,2.9-1.2,4.4-1.9c3.5-1.7,6.9-3.5,10.2-5.4L-1447.6,1117z M-1523.7,1014l20.4,12.2c0.7,0.7,1.5,1,2.4,1
		c0.5,0,0.9-0.1,1.2-0.2c0.5-0.1,0.8-0.5,1.1-0.8l0,0l20.7-12.1l-4.8-4.9l-14.6,6.6l0.3-106.7l37.7,0.2c0.1,0,12.8,0.1,25.8,5.4
		c16.9,6.9,26.2,18.9,27.5,35.7l-0.2,53.8c0,1,0,2.2-0.1,3.3c-0.1,2.2-0.2,4.3-0.5,6.5c0,0.1,0,0.1,0,0.2c-0.2,1.6-0.3,3.2-0.7,4.8
		c-0.2,1.1-0.3,2.4-0.7,3.5c0,0,0,0,0,0.1c0,0.1,0,0.2-0.1,0.3c-0.1,0.6-0.2,1.1-0.3,1.7c0,0,0,0,0,0.1c-0.2,1-0.5,1.9-0.7,2.8
		c0,0.2-0.1,0.5-0.2,0.8c-0.3,1.5-0.8,2.8-1.2,4.3c0,0,0,0,0,0.1c-0.5,1.5-1,2.8-1.5,4.3c-0.6,1.4-1,2.7-1.6,4.1
		c-0.1,0.1-0.1,0.2-0.2,0.3c-0.5,1.1-1,2.3-1.6,3.5c-0.7,1.4-1.4,2.6-2,4c-0.3,0.6-0.6,1.1-0.9,1.7c-0.5,0.8-0.8,1.5-1.2,2.2
		c-0.6,1-1.2,2-1.9,3.1c-0.6,0.8-1.1,1.7-1.7,2.6c-0.2,0.3-0.5,0.7-0.7,1c-0.1,0.1-0.2,0.2-0.2,0.3c-0.2,0.3-0.5,0.7-0.7,1
		c-0.2,0.3-0.5,0.7-0.7,0.9c-0.6,0.8-1.2,1.5-1.8,2.3c-0.6,0.7-1.1,1.4-1.7,2c0,0.1-0.1,0.1-0.1,0.1c-0.2,0.3-0.6,0.6-0.8,0.9
		c-0.1,0-0.1,0.1-0.1,0.1c-0.8,0.9-1.7,1.8-2.5,2.7c-0.5,0.5-0.9,0.9-1.4,1.4c-0.8,0.8-1.7,1.7-2.6,2.4c-0.2,0.2-0.6,0.5-0.8,0.8
		c-0.9,0.9-1.9,1.7-2.9,2.5c-2.2,1.8-4.4,3.5-6.8,5.1c-1.6,1.1-3.3,2.2-5,3.2c-0.9,0.5-1.7,1-2.6,1.5s-1.7,0.9-2.6,1.4
		c-1.6,0.8-3.3,1.7-5,2.4c-1.2,0.6-2.6,1.1-4,1.7c-0.9,0.3-1.8,0.7-2.6,1c-1.1,0.5-2.3,0.8-3.4,1.1c-1,0.3-2.2,0.7-3.2,0.9
		c-0.1,0-0.2,0-0.2,0.1c-1,0.2-2,0.6-3.2,0.8c-0.8,0.2-1.5,0.3-2.3,0.5c-0.9,0.2-1.7,0.3-2.6,0.5c-1.2,0.2-2.4,0.3-3.6,0.6
		c-0.5,0.1-0.9,0.1-1.5,0.2c-1.1,0.1-2.4,0.2-3.5,0.3c-0.3,0-0.7,0.1-1,0.1c-0.3,0-0.7,0.1-1,0.1c-0.1,0-0.2,0-0.2,0
		c-0.9,0.1-1.8,0.1-2.7,0.1c-1.2,0-2.4,0-3.6,0c-1.2,0-2.4,0-3.6-0.1c-0.9,0-1.9-0.1-2.7-0.1c-0.1,0-0.2,0-0.2,0
		c-0.7,0-1.4-0.1-2.2-0.2c-1.1-0.1-2.4-0.2-3.5-0.3c-0.5-0.1-0.9-0.1-1.5-0.2c-1.2-0.2-2.4-0.3-3.6-0.6c-0.8-0.1-1.7-0.3-2.6-0.6
		c-0.8-0.1-1.5-0.3-2.3-0.6c-1-0.2-2.2-0.6-3.2-0.8c-0.1,0-0.1,0-0.2-0.1c-1-0.3-2.2-0.6-3.2-1c-1.1-0.3-2.3-0.7-3.4-1.1
		c-2.3-0.8-4.4-1.7-6.6-2.7c-1.7-0.8-3.3-1.6-5-2.4c-0.9-0.5-1.8-0.9-2.6-1.4c-0.9-0.5-1.7-1-2.6-1.5c-1.7-1-3.4-2-5-3.2
		c-2.4-1.6-4.6-3.3-6.8-5.2c-1.1-0.9-2.3-1.9-3.4-2.9c-1-0.9-1.9-1.8-2.9-2.8c-0.1-0.1-0.3-0.2-0.5-0.5c-0.8-0.8-1.6-1.7-2.4-2.5
		c-0.1-0.1-0.2-0.2-0.3-0.3c-0.2-0.2-0.6-0.6-0.8-0.9c-0.1-0.1-0.2-0.3-0.3-0.5c-0.5-0.5-0.8-1-1.2-1.5c-0.5-0.6-0.8-1-1.2-1.5
		c-0.1-0.1-0.1-0.2-0.2-0.2c-0.7-0.8-1.2-1.7-1.9-2.5c-0.7-0.9-1.5-1.9-2-2.9c0-0.1-0.1-0.1-0.1-0.2c-0.5-0.6-0.8-1.2-1.2-1.8
		c-0.2-0.3-0.5-0.7-0.7-1c-0.6-0.8-1-1.6-1.5-2.4c-1.2-2-2.4-4.2-3.4-6.5c-0.5-1.1-1-2.2-1.5-3.3s-1-2.3-1.4-3.4
		c-0.5-1.1-0.9-2.3-1.2-3.4v-0.1c-0.3-0.9-0.6-1.7-0.9-2.6c-0.1-0.2-0.1-0.6-0.2-0.8c-0.1-0.3-0.2-0.8-0.3-1.1
		c-0.1-0.2-0.1-0.6-0.2-0.8c-0.1-0.2-0.1-0.6-0.2-0.8c-0.2-0.9-0.5-1.8-0.7-2.7c-0.2-0.9-0.5-1.7-0.6-2.6c-0.1-0.3-0.1-0.8-0.2-1.1
		s-0.1-0.7-0.2-1.1c-0.2-1.2-0.5-2.4-0.6-3.6c-0.1-0.3-0.1-0.6-0.1-0.9c-0.2-1.2-0.3-2.5-0.5-3.7v-0.1c0-0.1,0-0.2,0-0.2
		c-0.2-2.2-0.3-4.3-0.5-6.6c-0.1-1-0.1-2.2,0-3.2l0.2-48.9c0-0.5,0.1-0.9,0.1-1.5h0.1c0.1-1,0.1-2,0.2-2.9
		c2.3-15.3,11.3-26.8,27.1-34.1c13.3-6.1,26.5-7,26.5-7l37.5,0.2l-0.6,106.9l-14.6-6.9L-1523.7,1014z"/>
	<path class="st1" d="M-1519.4,1118.7c0,14,35.2,14.5,35.2,0"/>
	<g>
		<path class="st0" d="M-1499,758.4c32.8,0,64.5,6.4,94.4,19.1c28.9,12.2,54.8,29.7,77.1,52c22.3,22.3,39.8,48.2,52,77.1
			c12.6,29.9,19.1,61.7,19.1,94.4c0,32.7-6.4,64.5-19.1,94.4c-12.2,28.9-29.7,54.8-52,77.1c-22.3,22.3-48.2,39.8-77.1,52
			c-29.9,12.6-61.7,19.1-94.4,19.1s-64.5-6.4-94.4-19.1c-28.9-12.2-54.8-29.7-77.1-52s-39.8-48.2-52-77.1
			c-12.6-29.9-19.1-61.7-19.1-94.4c0-32.7,6.4-64.5,19.1-94.4c12.2-28.9,29.7-54.8,52-77.1s48.2-39.8,77.1-52
			C-1563.5,764.8-1531.8,758.4-1499,758.4 M-1499,751.4c-137.9,0-249.6,111.7-249.6,249.6s111.7,249.6,249.6,249.6
			s249.6-111.7,249.6-249.6S-1361.1,751.4-1499,751.4L-1499,751.4z"/>
	</g>
	<path class="st0" d="M-1538.3,1045L-1538.3,1045l0.1,1.1C-1538.3,1045.8-1538.3,1045.4-1538.3,1045z"/>
	<path class="st0" d="M-1462.9,1045c0,2.8-1.2,5.3-3.3,7.4h-68.9c-1.8-1.8-2.9-3.9-3.1-6.2v-1.2"/>
	<path class="st2" d="M-1466.1,1052.4c-12.5,12.6-56.6,12.6-68.9,0H-1466.1z"/>
</g>
<path class="st3" d="M-1535.8,980.1c-0.5-1.3-1.1-2.4-2-3.3c-0.1-0.1-0.1-0.1-0.3-0.3c-0.6-0.5-1.3-1-2-1.4
	c-0.3-0.1-0.6-0.3-0.9-0.4c-0.1-0.1-0.5-0.1-0.8-0.3c-0.9-0.3-1.9-0.4-2.9-0.4c-0.8,0-1.3,0-1.9,0.1c-0.3,0.1-0.6,0.1-0.9,0.3
	c-0.3,0-0.8,0.1-1,0.3c-0.4,0.1-0.5,0.3-0.8,0.4c-0.1,0.1-0.5,0.3-0.8,0.4l-0.1,0.1c-0.3,0.1-0.5,0.3-0.6,0.4s-0.3,0.3-0.4,0.4
	c-0.9,0.9-1.6,2-2.3,3.4c-0.8,1.8-1.1,3.8-1.1,6.2l1.3,0c0-2.5,1.4-4.6,3.2-4.6c1.7,0,3.2,2.1,3.2,4.6c0,0,0,0,0,0l12.1,0.1
	c0-0.3,0-0.6,0-0.6C-1534.8,983.5-1535.1,981.6-1535.8,980.1z"/>
<path class="st3" d="M-1465.4,986c0-2.6,1.4-4.6,3.2-4.6c1.7,0,3.2,2.1,3.2,4.6c0,0.1,0,0.2,0,0.3l12.4,0.1c0-0.3,0-0.4,0-0.6
	c-0.1-2.1-0.4-4-1.2-5.5c-0.5-1.3-1.2-2.4-2.1-3.3c-0.1-0.1-0.1-0.1-0.3-0.3c-0.6-0.5-1.3-1-2.1-1.4c-0.3-0.1-0.6-0.3-0.9-0.4
	c-0.1-0.1-0.5-0.1-0.8-0.3c-0.9-0.3-1.9-0.4-3-0.4c-0.8,0-1.3,0-1.9,0.1c-0.3,0.1-0.6,0.1-0.9,0.3c-0.3,0-0.8,0.1-1,0.3
	c-0.4,0.1-0.5,0.3-0.8,0.4c-0.1,0.1-0.5,0.3-0.8,0.4l-0.1,0.1c-0.3,0.1-0.5,0.3-0.6,0.4c-0.1,0.1-0.3,0.3-0.4,0.4
	c-0.9,0.9-1.7,2.1-2.3,3.5c-0.8,1.8-1.2,3.9-1.2,6.3l1.5,0C-1465.3,986.2-1465.4,986.1-1465.4,986z"/>
</svg>
